<?xml version="1.0" encoding="UTF-8"?>
<svg width="280px" height="62px" viewBox="0 0 280 62" version="1.1" xmlns="http://www.w3.org/2000/svg" xmlns:xlink="http://www.w3.org/1999/xlink">
    <title>4106D207-E94C-4C78-8042-36A79F0F004B</title>
    <g id="Components" stroke="none" stroke-width="1" fill="none" fill-rule="evenodd">
        <g id="Logos" transform="translate(-58.000000, -61.000000)" fill-rule="nonzero">
            <g id="Grace-logo-/-On-light-02" transform="translate(58.000000, 61.000000)">
                <g id="Group-2-Copy" transform="translate(0.000000, 5.000000)">
                    <path d="M70.406007,28.729344 C73.7049494,27.4998667 76.4134832,25.8772205 78.5161482,23.0703539 C80.9570176,19.8146903 82.1503957,16.4901986 85.7179688,14.0821578 C84.1139138,14.3291846 82.5098588,14.5771544 80.9058038,14.8241813 C87.2679113,20.1795735 89.4382169,28.8962286 95.4456932,34.6202754 C100.914941,39.8314114 110.365338,43.0842465 117.906329,43.2247313 C119.691082,43.2577311 123.973715,40.6705486 120.214815,40.5998348 C112.917331,40.4631214 104.04768,36.3466351 99.1949301,31.1138135 C94.0832126,25.6019081 91.9931094,17.7517328 86.1460388,12.8309948 C84.9700539,11.8410016 82.3813413,12.8658803 81.3338738,13.5730183 C75.9564244,17.201108 74.5089094,24.7109141 68.3381289,27.01147 C64.641072,28.3918034 68.0917232,29.5920524 70.406007,28.729344 Z" id="Shape" fill="#494949"></path>
                    <path d="M32.3404578,27.4257513 C40.0009934,19.4369135 46.4092615,11.5808957 49.9106169,1.06006128 C48.1215261,1.52680172 46.3324352,1.99354215 44.5433443,2.46028258 C47.8939284,6.98738416 49.2297445,12.4657383 53.4715127,16.3876674 C55.3153424,18.0928133 57.5817163,18.7709432 59.1038357,20.8034622 C61.0581033,23.4112224 62.4256101,26.525943 64.0331989,29.3404159 C66.8652057,34.29965 70.8131139,38.1355267 74.8138397,42.2145949 C78.6628343,46.1393301 82.8239347,47.9604596 88.412083,47.6658238 C90.1685225,47.5732241 94.4150927,44.819549 90.6938219,45.0159728 C84.0368288,45.3667297 80.3750987,40.6039195 76.2312841,36.2863367 C72.1835017,32.0688364 69.4523292,27.6287226 66.6260844,22.5694059 C65.7733133,21.0429122 64.8658032,19.5557032 63.8132837,18.1508052 C62.3286168,16.1687952 59.5657538,15.2194133 57.7238449,13.5161381 C53.999693,10.073109 52.7320605,4.499349 49.7483216,0.468919094 C48.8494546,-0.745167239 44.7901486,0.641959136 44.381049,1.86914039 C40.963242,12.140236 34.6942215,19.7717694 27.2267118,27.5585712 C25.7977438,29.0485863 31.2840971,28.5266601 32.3404578,27.4257513 Z" id="Shape" fill="#3297A5"></path>
                    <path d="M4.75031754,43.3472744 C13.2889926,38.0020007 16.6041997,28.7027525 23.9212804,22.2531989 C22.209896,22.6362023 20.4985116,23.0201376 18.7871271,23.403141 C27.8050282,30.4164831 33.8275264,40.1611707 42.0339124,47.9582253 C43.003889,48.8798564 47.9911052,46.8408991 47.2948349,46.1792631 C39.0855678,38.3794128 33.0726733,28.6431121 24.0480496,21.6241787 C23.021411,20.8264879 19.7340548,22.0519124 18.9138963,22.7741208 C11.9050953,28.951565 8.65327281,38.2666551 0.532359972,43.3500701 C-1.71971437,44.7600072 3.84564632,43.9138585 4.75031754,43.3472744 Z" id="Shape" fill="#E36F32"></path>
                </g>
                <g id="Group-Copy" transform="translate(133.000000, 0.000000)">
                    <path d="M10.272058,0.512581547 C15.9647389,0.512581547 20.1319239,3.16410835 20.1319239,8.42364674 C20.1319239,13.1871118 16.1717981,16.0039964 12.3763564,18.2822594 C8.74559898,20.4357788 5.32093759,22.1763872 5.28048885,24.9932718 L20.3389831,24.9507236 L20.3389831,29.2171482 L0,29.2171482 L0,27.0636288 C0,20.1872586 5.07439281,17.57828 9.32343839,15.0514968 C12.5824524,13.1464976 15.4292745,11.6959906 15.4292745,8.50680915 C15.4292745,6.06318836 13.3249761,4.77803915 9.85986595,4.77803915 C7.01304392,4.77803915 3.91871405,5.77211996 0.948619647,7.92660636 L0.948619647,3.37008035 C3.83589041,1.38288575 7.01208086,0.512581547 10.272058,0.512581547 Z" id="Shape" fill="#494949"></path>
                    <path d="M36.8644068,0.512581547 C45.4822433,0.512581547 49.3220339,6.88484321 49.3220339,15.1206726 C49.3220339,23.356502 45.4822433,29.7297297 36.8644068,29.7297297 C28.2465703,29.7297297 24.4067797,23.3574681 24.4067797,15.1206726 C24.4067797,6.88484321 28.2465703,0.512581547 36.8644068,0.512581547 Z M36.8644068,4.81646658 C31.5133005,4.81646658 29.1028236,8.58224521 29.1028236,15.1206726 C29.1028236,21.6591 31.5133005,25.4258447 36.8644068,25.4258447 C42.1735585,25.4258447 44.6250365,21.6600661 44.6250365,15.1206726 C44.6250365,8.58224521 42.1735585,4.81646658 36.8644068,4.81646658 Z" id="Shape" fill="#494949"></path>
                    <path d="M63.1534139,0.512581547 C68.8460949,0.512581547 73.01328,3.16410835 73.01328,8.42364674 C73.01328,13.1871118 69.0531539,16.0039964 65.2577125,18.2822594 C61.6269549,20.4357788 58.2022937,22.1763872 58.1618446,24.9932718 L73.220339,24.9507236 L73.220339,29.2171482 L52.8813559,29.2171482 L52.8813559,27.0636288 C52.8813559,20.1872586 57.9557486,17.57828 62.2047941,15.0514968 C65.4638085,13.1464976 68.3106305,11.6959906 68.3106305,8.50680915 C68.3106305,6.06318836 66.2063319,4.77803915 62.741222,4.77803915 C59.8944,4.77803915 56.8000698,5.77211996 53.8299758,7.92660636 L53.8299758,3.37008035 C56.7182095,1.38288575 59.8944,0.512581547 63.1534139,0.512581547 Z" id="Shape" fill="#494949"></path>
                    <polygon id="Shape" fill="#494949" points="90.6047217 1.02516309 90.6047217 24.9469258 95.5932203 24.9469258 95.5932203 29.2171482 80.3389831 29.2171482 80.3389831 24.9469258 85.9463517 24.9469258 85.9463517 5.87513691 80.3389831 7.98992294 80.3389831 3.63743197 87.1417434 1.02516309"></polygon>
                    <path d="M101.969947,29.2171482 C100.478551,29.2171482 99.1525424,28.3889195 99.1525424,26.6146695 C99.1525424,24.9195614 100.477583,24.0913327 101.969947,24.0913327 C103.461343,24.0913327 104.745763,24.9195614 104.745763,26.6146695 C104.745763,28.3889195 103.461343,29.2171482 101.969947,29.2171482 Z" id="Shape" fill="#E07032"></path>
                    <path d="M108.813559,28.7045666 L121.005544,0 L126.154446,0 L138.305085,28.7045666 L133.362908,28.7045666 L130.808168,22.5120154 L116.350859,22.5120154 L113.797081,28.7045666 L108.813559,28.7045666 Z M117.957548,18.4130041 L129.160135,18.4130041 L124.093923,6.15234608 C123.928543,5.70051672 123.764124,5.24964461 123.557399,4.55275525 C123.351635,5.24964461 123.186255,5.70051672 123.021836,6.15234608 L117.957548,18.4130041 Z" id="Shape" fill="#494949"></path>
                    <polygon id="Shape" fill="#494949" points="146.440678 0 146.440678 28.7045666 141.864407 28.7045666 141.864407 0"></polygon>
                </g>
                <path d="M143.146385,50.9342192 L150.696005,50.9342192 L150.696005,60.6843857 C148.716379,61.5614663 146.489333,62 144.014801,62 C140.783903,62 138.307074,61.0474072 136.584239,59.1421928 C134.861404,57.2369783 134,54.5399956 134,51.0511627 C134,48.8779517 134.427201,46.950839 135.281614,45.2697675 C136.136028,43.5886959 137.359269,42.2901487 138.951374,41.3740866 C140.543479,40.4580246 142.371337,40 144.435003,40 C146.666751,40 148.669691,40.428789 150.443884,41.2863787 L149.869608,42.6312292 C148.095416,41.7736395 146.255886,41.3448505 144.350963,41.3448505 C141.652322,41.3448505 139.51165,42.2146093 137.928884,43.9541531 C136.346117,45.6936964 135.554745,48.0398524 135.554745,50.992691 C135.554745,54.2086538 136.306431,56.6278991 137.809827,58.2504983 C139.313221,59.8730981 141.521592,60.6843857 144.435003,60.6843857 C146.32125,60.6843857 147.922668,60.4066471 149.239307,59.8511629 L149.239307,52.3375415 L143.146385,52.3375415 L143.146385,50.9342192 Z M172.632522,52.3960132 L172.632522,61.7076412 L171.203837,61.7076412 L171.203837,40.336213 L176.078174,40.336213 C178.618071,40.336213 180.494953,40.8259089 181.708874,41.8053155 C182.922795,42.7847227 183.529747,44.2586837 183.529747,46.2272428 C183.529747,47.6598081 183.167911,48.8682124 182.444226,49.8524919 C181.720543,50.8367714 180.621027,51.5432979 179.145645,51.9720928 L184.706311,61.7076412 L182.997492,61.7076412 L177.71696,52.3960132 L172.632522,52.3960132 Z M172.632522,51.1096345 L176.540396,51.1096345 C178.267899,51.1096345 179.607862,50.7076455 180.560323,49.9036546 C181.512785,49.0996638 181.989009,47.9131861 181.989009,46.3441863 C181.989009,44.7167142 181.522122,43.5326726 180.588337,42.792027 C179.654551,42.0513807 178.132503,41.681063 176.022148,41.681063 L172.632522,41.681063 L172.632522,51.1096345 Z M213.478106,54.1647841 L205.158117,54.1647841 L202.300747,61.7076412 L200.717988,61.7076412 L208.953937,40.2485051 L209.864373,40.2485051 L217.932241,61.7076412 L216.321469,61.7076412 L213.478106,54.1647841 Z M205.676365,52.8199336 L213.001877,52.8199336 L210.214541,45.1162793 C209.981095,44.5120681 209.700963,43.673981 209.374138,42.6019936 C209.122016,43.5375466 208.846553,44.3853783 208.547742,45.1455149 L205.676365,52.8199336 Z M244.364915,41.3740866 C241.797004,41.3740866 239.775388,42.2316635 238.300007,43.9468441 C236.824625,45.6620241 236.086946,48.0106162 236.086946,50.992691 C236.086946,54.0429832 236.782606,56.4110657 238.173946,58.0970101 C239.565287,59.782954 241.554221,60.6259134 244.140807,60.6259134 C245.858973,60.6259134 247.437047,60.3969013 248.875077,59.9388703 L248.875077,61.2544852 C247.521088,61.7514976 245.830961,62 243.804646,62 C240.928586,62 238.66419,61.030353 237.011389,59.0910301 C235.358588,57.1517066 234.5322,54.4425425 234.5322,50.9634554 C234.5322,48.7902438 234.926719,46.875313 235.715768,45.2186048 C236.504817,43.5618965 237.639349,42.2828396 239.119399,41.3813957 C240.59945,40.4799512 242.319924,40.0292361 244.280874,40.0292361 C246.279176,40.0292361 248.067349,40.4190438 249.645446,41.1986714 L249.071171,42.5435218 C247.577114,41.7638943 246.008377,41.3740866 244.364915,41.3740866 Z M280,61.7076412 L268.808634,61.7076412 L268.808634,40.336213 L280,40.336213 L280,41.7102991 L270.237319,41.7102991 L270.237319,49.7940201 L279.453738,49.7940201 L279.453738,51.1681062 L270.237319,51.1681062 L270.237319,60.3335551 L280,60.3335551 L280,61.7076412 Z" id="GRACE-Copy-2" fill="#494949"></path>
            </g>
        </g>
    </g>
</svg>